<?xml version="1.0" encoding="utf-8"?>
<!-- Generator: Adobe Illustrator 19.0.0, SVG Export Plug-In . SVG Version: 6.00 Build 0)  -->
<svg version="1.1" id="Layer_1" xmlns="http://www.w3.org/2000/svg" xmlns:xlink="http://www.w3.org/1999/xlink" x="0px" y="0px"
	 width="1400px" height="980px" viewBox="0 0 1400 980" enable-background="new 0 0 1400 980" xml:space="preserve">
<rect id="XMLID_128_" fill-rule="evenodd" clip-rule="evenodd" fill="#C59557" width="1400" height="980"/>
<g id="XMLID_1_">
	<polygon id="XMLID_127_" fill-rule="evenodd" clip-rule="evenodd" fill="#C1BFBC" points="336.6,662.4 336.6,677.9 700,887.8 
		700,872.2 	"/>
	<polygon id="XMLID_126_" fill-rule="evenodd" clip-rule="evenodd" fill="#CECDCA" points="1063.4,662.4 1063.4,677.9 700,887.8 
		700,872.2 	"/>
	<polygon id="XMLID_125_" fill-rule="evenodd" clip-rule="evenodd" fill="#CECDCA" points="1063.4,662.4 1063.4,304.9 1050,312.6 
		1050,670.1 	"/>
	<polygon id="XMLID_124_" fill-rule="evenodd" clip-rule="evenodd" fill="#DBDBD9" points="1050,312.6 700,110.8 700,95.2 
		1063.4,304.9 	"/>
	<polygon id="XMLID_123_" fill-rule="evenodd" clip-rule="evenodd" fill="#C1BFBC" points="336.6,662.4 336.6,304.9 350,312.6 
		350,670.1 	"/>
	<polygon id="XMLID_122_" fill-rule="evenodd" clip-rule="evenodd" fill="#DBDBD9" points="350,312.6 700,110.8 700,95.2 
		336.6,304.9 	"/>
	<polygon id="XMLID_121_" fill-rule="evenodd" clip-rule="evenodd" fill="#CBBAB3" points="700,110.8 700,468.1 350,670.1 
		350,312.6 	"/>
	<polygon id="XMLID_120_" fill-rule="evenodd" clip-rule="evenodd" fill="#EBE5DA" points="700,110.8 700,468.1 1050,670.1 
		1050,312.6 	"/>
	<polygon id="XMLID_119_" fill-rule="evenodd" clip-rule="evenodd" fill="#B3998F" points="350.2,670.3 700.2,468.2 700.2,449.5 
		350.2,651.5 	"/>
	<polygon id="XMLID_118_" fill-rule="evenodd" clip-rule="evenodd" fill="#DEC9AC" points="1050,667.5 700,869.5 350,670.1 
		700,465.4 	"/>
	<polygon id="XMLID_117_" fill-rule="evenodd" clip-rule="evenodd" fill="#65533C" points="840.3,698.9 623.7,825.4 350.1,670.2 
		568.9,542.3 	"/>
	<polygon id="XMLID_116_" fill-rule="evenodd" clip-rule="evenodd" fill="#D6B280" points="749.6,337.4 749.6,221.9 989.3,358.6 
		989.3,475.1 	"/>
	<path id="XMLID_224_" fill-rule="evenodd" clip-rule="evenodd" fill="#F1EAE2" d="M967.5,386.7c-0.4-0.5-0.7-1-1.1-1.5
		C966.7,385.8,967.1,386.3,967.5,386.7 M969.7,389.7c-0.6-0.7-1.1-1.5-1.7-2.2C968.6,388.2,969.2,388.9,969.7,389.7z M970.9,391.1
		c-0.4-0.5-0.8-1-1.1-1.4C970.1,390.1,970.5,390.6,970.9,391.1z M926.1,374.5c-0.4-0.9-0.8-1.7-1.2-2.6
		C925.3,372.7,925.7,373.6,926.1,374.5z M927.9,378.4c-0.6-1.3-1.2-2.6-1.8-3.9C926.7,375.8,927.3,377.1,927.9,378.4z M968.8,445
		c-9.3-9-16.6-20.8-23-32.2c-6.3-11.2-12.4-22.7-17.9-34.4c5.5,11.7,11.6,23.2,17.9,34.4C952.2,424.2,959.5,436,968.8,445z
		 M972.1,448c-0.7-0.6-1.5-1.3-2.2-2C970.6,446.7,971.4,447.4,972.1,448z M766.9,290.6c-0.3,0.2-0.6,0.5-0.9,0.7
		C766.3,291.1,766.6,290.9,766.9,290.6z M768.7,289.1c-0.3,0.3-0.6,0.5-0.9,0.8C768.1,289.6,768.4,289.3,768.7,289.1z M780.1,277.3
		c-3.5,4.2-7.4,8.1-11.5,11.8C772.7,285.4,776.6,281.5,780.1,277.3z M778.5,324.8c-0.4,0.3-0.8,0.6-1.2,0.9
		C777.7,325.4,778.1,325.1,778.5,324.8z M788.5,316.4c-3.2,3-6.5,5.8-10,8.4C781.9,322.1,785.3,319.3,788.5,316.4z M789.2,315.7
		c-0.2,0.2-0.5,0.5-0.7,0.7C788.7,316.1,789,315.9,789.2,315.7z M790.3,314.6c-0.4,0.3-0.7,0.7-1.1,1
		C789.6,315.3,789.9,315,790.3,314.6z M804,299.5c-0.3,0.4-0.6,0.7-0.8,1.1C803.4,300.2,803.7,299.8,804,299.5z M806,296.8
		c-0.3,0.4-0.5,0.7-0.8,1.1C805.5,297.5,805.7,297.2,806,296.8z M808.4,293.5c-0.3,0.4-0.5,0.7-0.8,1.1
		C807.9,294.3,808.1,293.9,808.4,293.5z M823.7,310.4c-0.5,1.1-0.9,2.1-1.4,3.2C822.8,312.5,823.2,311.5,823.7,310.4z M914,413
		c-0.2-0.3-0.3-0.5-0.5-0.8C913.7,412.5,913.8,412.8,914,413z M915.1,414.6c-0.4-0.5-0.7-1-1.1-1.6
		C914.4,413.6,914.7,414.1,915.1,414.6z M955,354.3l5,2.9l15.6,9.2v9.2v14.6v5.4v1.2v3.8v50.2v0.1l-58.1-33
		c-0.8-1.1-1.6-2.2-2.4-3.3c0.8,1.2,1.6,2.3,2.4,3.3l-15.5-8.8l-27.1-15.4v0L837,372.3l0,0l-38-21.5l0,0l-6.4-3.6l-4.3-2.5l-4.6-2.7
		l-12.5-7.4l-3.5-2.1l-4.4-2.6v-18.1v-5.8v-12.3v-2.2v-11.8v-33.6l27.6,16.2l1.4,0.8l25.9,14.5c-2.8,5.4-6,10.6-9.5,15.6
		c3.5-5,6.6-10.2,9.5-15.6l14,7.9c-2.2,8.6-5.1,17-8.6,25.2c3.5-8.1,6.4-16.6,8.6-25.2l16.2,9.1l18.4,10.3l42.9,24.1l32.6,18.3
		l0.9,0.5L955,354.3z"/>
	<polygon id="XMLID_94_" fill-rule="evenodd" clip-rule="evenodd" fill="#D6B280" points="989.3,358.6 975.6,366.4 763.4,245.9 
		749.6,221.9 	"/>
	<polygon id="XMLID_93_" fill-rule="evenodd" clip-rule="evenodd" fill="#D6B280" points="989.3,475.1 975.6,450.9 763.4,329.7 
		749.6,337.4 	"/>
	<polygon id="XMLID_92_" fill-rule="evenodd" clip-rule="evenodd" fill="#F2D9AB" points="763.4,329.7 767.3,326.4 975.6,445.4 
		975.6,450.9 	"/>
	<polygon id="XMLID_91_" fill-rule="evenodd" clip-rule="evenodd" fill="#C7924D" points="767.3,326.4 767.3,248.1 763.4,245.9 
		763.4,329.7 	"/>
	<polygon id="XMLID_90_" fill-rule="evenodd" clip-rule="evenodd" fill="#C7924D" points="989.3,475.1 994.6,471.9 994.6,355.1 
		989.3,358.6 	"/>
	<polygon id="XMLID_89_" fill-rule="evenodd" clip-rule="evenodd" fill="#F2D9AB" points="749.6,221.9 754.8,218.2 994.6,355.1 
		989.3,358.6 	"/>
	<polygon id="XMLID_88_" fill-rule="evenodd" clip-rule="evenodd" fill="#D6B280" points="418,460.6 418,415.4 378.9,438.4 
		378.9,483.9 	"/>
	<polygon id="XMLID_87_" fill-rule="evenodd" clip-rule="evenodd" fill="#F1EAE2" points="390.4,437.8 392.3,436.7 397.3,433.8 
		401.2,431.4 412.6,424.8 412.6,437.9 412.6,442.6 412.6,448.2 412.6,450.5 412.6,457.6 409.5,459.4 404.6,462.4 402.8,463.4 
		401.1,464.4 384.3,474.5 384.3,454.8 384.3,452.8 384.3,450.7 384.3,445 384.3,441.4 	"/>
	<polygon id="XMLID_86_" fill-rule="evenodd" clip-rule="evenodd" fill="#D6B280" points="378.9,438.4 384.3,441.4 412.6,424.8 
		418,415.4 	"/>
	<polygon id="XMLID_85_" fill-rule="evenodd" clip-rule="evenodd" fill="#D6B280" points="378.9,483.9 384.3,474.5 412.6,457.6 
		418,460.6 	"/>
	<polygon id="XMLID_84_" fill-rule="evenodd" clip-rule="evenodd" fill="#F2D9AB" points="402.8,463.4 412.6,457.6 411.1,456.3 
		384.3,472.3 384.3,474.5 	"/>
	<polygon id="XMLID_83_" fill-rule="evenodd" clip-rule="evenodd" fill="#C7924D" points="411.1,456.3 411.1,425.7 412.6,424.8 
		412.6,457.6 	"/>
	<polygon id="XMLID_82_" fill-rule="evenodd" clip-rule="evenodd" fill="#C7924D" points="378.9,483.9 376.8,482.7 376.8,437 
		378.9,438.4 	"/>
	<polygon id="XMLID_81_" fill-rule="evenodd" clip-rule="evenodd" fill="#F2D9AB" points="418,415.4 415.9,414 376.8,437 
		378.9,438.4 	"/>
	<polygon id="XMLID_80_" fill-rule="evenodd" clip-rule="evenodd" fill="#D6B280" points="475.2,428.7 475.2,383.5 436.2,406.5 
		436.2,452 	"/>
	<polygon id="XMLID_79_" fill-rule="evenodd" clip-rule="evenodd" fill="#F1EAE2" points="447.7,405.9 449.6,404.8 454.5,401.9 
		458.5,399.6 469.9,392.9 469.9,406 469.9,410.7 469.9,416.4 469.9,418.6 469.9,425.7 466.8,427.6 461.9,430.5 460.1,431.5 
		458.4,432.5 441.6,442.6 441.6,422.9 441.6,420.9 441.6,418.8 441.6,413.1 441.6,409.5 	"/>
	<polygon id="XMLID_78_" fill-rule="evenodd" clip-rule="evenodd" fill="#D6B280" points="436.2,406.5 441.6,409.5 469.9,392.9 
		475.2,383.5 	"/>
	<polygon id="XMLID_77_" fill-rule="evenodd" clip-rule="evenodd" fill="#D6B280" points="436.2,452 441.6,442.6 469.9,425.7 
		475.2,428.7 	"/>
	<polygon id="XMLID_76_" fill-rule="evenodd" clip-rule="evenodd" fill="#F2D9AB" points="460.1,431.5 469.9,425.7 468.3,424.4 
		441.6,440.4 441.6,442.6 	"/>
	<polygon id="XMLID_75_" fill-rule="evenodd" clip-rule="evenodd" fill="#C7924D" points="468.3,424.4 468.3,393.8 469.9,392.9 
		469.9,425.7 	"/>
	<polygon id="XMLID_74_" fill-rule="evenodd" clip-rule="evenodd" fill="#C7924D" points="436.2,452 434.1,450.8 434.1,405.1 
		436.2,406.5 	"/>
	<polygon id="XMLID_73_" fill-rule="evenodd" clip-rule="evenodd" fill="#F2D9AB" points="475.2,383.5 473.2,382.1 434.1,405.1 
		436.2,406.5 	"/>
	<polygon id="XMLID_72_" fill-rule="evenodd" clip-rule="evenodd" fill="#D6B280" points="531,396.4 531,351.2 491.9,374.1 
		491.9,419.7 	"/>
	<polygon id="XMLID_71_" fill-rule="evenodd" clip-rule="evenodd" fill="#F1EAE2" points="503.4,373.6 505.4,372.4 510.3,369.5 
		514.3,367.2 525.6,360.5 525.6,373.7 525.6,378.3 525.6,384 525.6,386.3 525.6,393.3 522.5,395.2 517.6,398.1 515.8,399.2 
		514.2,400.2 497.3,410.2 497.3,390.5 497.3,388.6 497.3,386.5 497.3,380.8 497.3,377.2 	"/>
	<polygon id="XMLID_70_" fill-rule="evenodd" clip-rule="evenodd" fill="#D6B280" points="491.9,374.1 497.3,377.2 525.6,360.5 
		531,351.2 	"/>
	<polygon id="XMLID_69_" fill-rule="evenodd" clip-rule="evenodd" fill="#D6B280" points="491.9,419.7 497.3,410.2 525.6,393.3 
		531,396.4 	"/>
	<polygon id="XMLID_68_" fill-rule="evenodd" clip-rule="evenodd" fill="#F2D9AB" points="515.8,399.2 525.6,393.3 524.1,392.1 
		497.3,408.1 497.3,410.2 	"/>
	<polygon id="XMLID_67_" fill-rule="evenodd" clip-rule="evenodd" fill="#C7924D" points="524.1,392.1 524.1,361.4 525.6,360.5 
		525.6,393.3 	"/>
	<polygon id="XMLID_66_" fill-rule="evenodd" clip-rule="evenodd" fill="#C7924D" points="491.9,419.7 489.9,418.4 489.9,372.7 
		491.9,374.1 	"/>
	<polygon id="XMLID_65_" fill-rule="evenodd" clip-rule="evenodd" fill="#F2D9AB" points="531,351.2 529,349.7 489.9,372.7 
		491.9,374.1 	"/>
	<polygon id="XMLID_64_" fill-rule="evenodd" clip-rule="evenodd" fill="#D6B280" points="612.2,407.5 612.2,402.6 664.5,372.2 
		664.5,377.2 	"/>
	<polygon id="XMLID_63_" fill-rule="evenodd" clip-rule="evenodd" fill="#F2D9AB" points="664.5,372.2 638.7,357.2 586.4,387.6 
		612.2,402.6 	"/>
	<polygon id="XMLID_62_" fill-rule="evenodd" clip-rule="evenodd" fill="#C7924D" points="612.2,407.5 612.2,402.6 586.4,387.6 
		586.4,392.6 	"/>
	<polygon id="XMLID_61_" fill-rule="evenodd" clip-rule="evenodd" fill="#D6B280" points="654,340.2 654,335.2 706.3,304.9 
		706.3,309.9 	"/>
	<polygon id="XMLID_60_" fill-rule="evenodd" clip-rule="evenodd" fill="#F2D9AB" points="706.3,304.9 680.5,289.9 628.2,320.3 
		654,335.2 	"/>
	<polygon id="XMLID_59_" fill-rule="evenodd" clip-rule="evenodd" fill="#C7924D" points="654,340.2 654,335.2 628.2,320.3 
		628.2,325.3 	"/>
	<path id="XMLID_58_" fill-rule="evenodd" clip-rule="evenodd" fill="#9C9D9E" d="M612.7,380.6c0,3.9,5.8,7,12.9,7
		c7.1,0,12.9-3.1,12.9-7c0-3.9-5.8-7-12.9-7C618.5,373.6,612.7,376.7,612.7,380.6"/>
	<path id="XMLID_57_" fill-rule="evenodd" clip-rule="evenodd" fill="#EDEDEB" d="M612.7,378.9c0,3.9,5.8,7,12.9,7
		c7.1,0,12.9-3.1,12.9-7c0-3.9-5.8-7-12.9-7C618.5,371.8,612.7,375,612.7,378.9"/>
	<path id="XMLID_56_" fill-rule="evenodd" clip-rule="evenodd" fill="#DADBDB" d="M627.4,349.1v28.1l0,0.1c0,0.6-0.8,1-1.9,1
		c-1,0-1.8-0.4-1.9-1h0v-28.2H627.4z"/>
	<path id="XMLID_55_" fill-rule="evenodd" clip-rule="evenodd" fill="#EAEDEB" d="M640.3,341.6l2.1,20.2c0,4.4-8.7,8-16.8,8
		c-8.1,0-16.7-3.6-16.7-8l2-20.2H640.3z"/>
	<path id="XMLID_54_" fill-rule="evenodd" clip-rule="evenodd" fill="#F7F9FA" d="M611,341.6c0,4.4,6.6,8,14.7,8
		c8.1,0,14.7-3.6,14.7-8c0-4.4-6.6-8-14.7-8C617.5,333.6,611,337.2,611,341.6"/>
	<path id="XMLID_53_" fill-rule="evenodd" clip-rule="evenodd" fill="#DADBDB" d="M613.1,341.6c0,3.7,5.6,6.8,12.5,6.8
		c6.9,0,12.5-3,12.5-6.8c0-3.7-5.6-6.8-12.5-6.8C618.7,334.8,613.1,337.8,613.1,341.6"/>
	<path id="XMLID_52_" fill-rule="evenodd" clip-rule="evenodd" fill="#9C9D9E" d="M655.4,310.8c0,3.9,5.8,7,12.9,7
		c7.1,0,12.9-3.1,12.9-7c0-3.9-5.8-7-12.9-7C661.2,303.8,655.4,306.9,655.4,310.8"/>
	<path id="XMLID_51_" fill-rule="evenodd" clip-rule="evenodd" fill="#EDEDEB" d="M655.4,309c0,3.9,5.8,7,12.9,7
		c7.1,0,12.9-3.1,12.9-7c0-3.9-5.8-7-12.9-7C661.2,302,655.4,305.2,655.4,309"/>
	<path id="XMLID_50_" fill-rule="evenodd" clip-rule="evenodd" fill="#DADBDB" d="M670.1,279.3v28.1l0,0.1c0,0.6-0.8,1-1.9,1
		c-1,0-1.8-0.4-1.9-1h0v-28.2H670.1z"/>
	<path id="XMLID_49_" fill-rule="evenodd" clip-rule="evenodd" fill="#EAEDEB" d="M683,271.7l2.1,20.2c0,4.4-8.7,8-16.8,8
		c-8.1,0-16.7-3.6-16.7-8l2-20.2H683z"/>
	<path id="XMLID_48_" fill-rule="evenodd" clip-rule="evenodd" fill="#F7F9FA" d="M653.7,271.7c0,4.4,6.6,8,14.7,8
		c8.1,0,14.7-3.6,14.7-8c0-4.4-6.6-8-14.7-8C660.3,263.8,653.7,267.4,653.7,271.7"/>
	<path id="XMLID_47_" fill-rule="evenodd" clip-rule="evenodd" fill="#DADBDB" d="M655.9,271.7c0,3.7,5.6,6.8,12.5,6.8
		c6.9,0,12.5-3,12.5-6.8c0-3.7-5.6-6.8-12.5-6.8C661.5,265,655.9,268,655.9,271.7"/>
	<polygon id="XMLID_46_" fill-rule="evenodd" clip-rule="evenodd" fill="#CAA77A" points="1050,667.5 700,465.4 700,446.7 
		1050,648.8 	"/>
	<polygon id="XMLID_45_" fill-rule="evenodd" clip-rule="evenodd" fill="#D6B280" points="611.8,467 603,472.2 603,536.8 
		611.8,531.7 	"/>
	<polygon id="XMLID_44_" fill-rule="evenodd" clip-rule="evenodd" fill="#F2D9AB" points="752.8,435.8 700.5,405.4 594.2,467 
		646.6,497.4 	"/>
	<polygon id="XMLID_43_" fill-rule="evenodd" clip-rule="evenodd" fill="#C7924D" points="646.6,529.7 646.6,497.4 637.8,492.3 
		637.8,492.3 594.2,467 594.2,499.4 594.2,531.7 603,536.8 603,504.5 637.8,524.6 637.8,557 646.6,562.1 	"/>
	<polygon id="XMLID_42_" fill-rule="evenodd" clip-rule="evenodd" fill="#C7924D" points="743.8,441 744,441.1 744,505.7 
		735.2,500.6 735.2,446 	"/>
	<polygon id="XMLID_41_" fill-rule="evenodd" clip-rule="evenodd" fill="#D6B280" points="752.8,436 744,441.1 744,505.7 
		752.8,500.6 	"/>
	<polygon id="XMLID_40_" fill-rule="evenodd" clip-rule="evenodd" fill="#D6B280" points="646.6,529.7 646.6,497.4 655.3,492.3 
		655.3,492.3 752.8,435.8 752.8,468.1 655.3,524.6 655.3,557 646.6,562.1 	"/>
	<polygon id="XMLID_39_" fill-rule="evenodd" clip-rule="evenodd" fill="#F2D9AB" points="654.9,500.4 698,475.3 698,493.5 
		654.9,518.6 	"/>
	<path id="XMLID_38_" fill-rule="evenodd" clip-rule="evenodd" fill="#D0A367" d="M678.6,496c0,1.2-1,2.6-2.2,3.1
		c-1.2,0.5-2.2,0-2.2-1.2c0-1.2,1-2.6,2.2-3.1C677.6,494.3,678.6,494.8,678.6,496"/>
	<polygon id="XMLID_37_" fill-rule="evenodd" clip-rule="evenodd" fill="#F2D9AB" points="700.8,473.8 743.9,448.8 743.9,466.9 
		700.8,492 	"/>
	<path id="XMLID_36_" fill-rule="evenodd" clip-rule="evenodd" fill="#D0A367" d="M724.5,469.4c0,1.2-1,2.6-2.2,3.1
		c-1.2,0.5-2.2,0-2.2-1.2c0-1.2,1-2.6,2.2-3.1C723.6,467.7,724.5,468.2,724.5,469.4"/>
	<polygon id="XMLID_35_" fill-rule="evenodd" clip-rule="evenodd" fill="#3E3023" points="651.7,445.9 680.7,462.6 700,451.5 
		700,449.6 671.1,434.8 651.7,444 	"/>
	<polygon id="XMLID_34_" fill-rule="evenodd" clip-rule="evenodd" fill="#5C4B3C" points="651.7,444 680.7,460.7 700,449.6 
		671.1,432.9 	"/>
	<polygon id="XMLID_33_" fill-rule="evenodd" clip-rule="evenodd" fill="#F1F2EB" points="681.1,460.8 681.1,462.1 700,451.2 
		700,449.9 	"/>
	<polygon id="XMLID_32_" fill-rule="evenodd" clip-rule="evenodd" fill="#3E3023" points="640.3,462.1 660.5,473.7 673.9,466 
		673.9,464.7 653.8,454.4 640.3,460.8 	"/>
	<polygon id="XMLID_31_" fill-rule="evenodd" clip-rule="evenodd" fill="#5C4B3C" points="640.3,460.8 660.5,472.4 673.9,464.7 
		653.8,453.1 	"/>
	<polygon id="XMLID_30_" fill-rule="evenodd" clip-rule="evenodd" fill="#F1F2EB" points="660.8,472.5 660.8,473.4 673.9,465.8 
		673.9,464.9 	"/>
	<polygon id="XMLID_29_" fill-rule="evenodd" clip-rule="evenodd" fill="#90998B" points="638.5,459.7 658.6,471.3 672.1,463.6 
		672.1,462.3 652,452 638.5,458.4 	"/>
	<polygon id="XMLID_28_" fill-rule="evenodd" clip-rule="evenodd" fill="#AEB4AA" points="638.5,458.4 658.6,470 672.1,462.3 
		652,450.7 	"/>
	<polygon id="XMLID_27_" fill-rule="evenodd" clip-rule="evenodd" fill="#F1F2EB" points="659,470.1 659,471 672.1,463.4 
		672.1,462.5 	"/>
	<polygon id="XMLID_26_" fill-rule="evenodd" clip-rule="evenodd" fill="#FFFFFF" points="654.2,453.4 643.8,459.3 647,461.1 
		657.4,455.3 	"/>
	<polygon id="XMLID_25_" fill-rule="evenodd" clip-rule="evenodd" fill="#F2D9AB" points="366.1,662.3 366.1,629.7 539.6,538.5 
		773.7,669.9 773.7,697.3 599.7,797.4 	"/>
	<polygon id="XMLID_24_" fill-rule="evenodd" clip-rule="evenodd" fill="#C7924D" points="366.1,637.6 600,769 599.7,797.4 
		366.1,662.3 	"/>
	<polygon id="XMLID_23_" fill-rule="evenodd" clip-rule="evenodd" fill="#D6B280" points="600,769 599.7,797.4 773.7,697.3 
		773.7,669.9 	"/>
	<path id="XMLID_141_" fill-rule="evenodd" clip-rule="evenodd" fill="#D6B280" d="M424.3,581.7l-9,5.1v-46.5l9-5.2V581.7z
		 M443.6,570.8l-9,5.1v-46.6l9-5.2V570.8z M462.9,559.8l-9,5.1v-46.7l9-5.2V559.8z M482.2,548.8l-9,5.1v-46.8l9-5.2V548.8z
		 M501.5,537.9l-9,5.1v-46.9l9-5.2V537.9z M520.7,526.9l-9,5.1v-47l9-5.2V526.9z M540,515.9l-9,5.1v-47.1l9-5.2V515.9z M559.3,505
		l-9,5.1v-47.3l9-5.2V505z M396.1,551.4v46.4l9-5.1v-46.4L396.1,551.4z M381.8,646.8V546.6l191.9-110.2v101.3L381.8,646.8z"/>
	<polygon id="XMLID_12_" fill-rule="evenodd" clip-rule="evenodd" fill="#F2D9AB" points="573.6,436.4 557.8,427.2 366.1,536.2 
		381.8,546.6 	"/>
	<polygon id="XMLID_11_" fill-rule="evenodd" clip-rule="evenodd" fill="#C7924D" points="366.1,536.2 366.1,637.5 381.8,646.8 
		381.8,546.6 	"/>
	<polygon id="XMLID_10_" fill-rule="evenodd" clip-rule="evenodd" fill="#F6F5E9" points="391.5,641.3 391.5,608.7 564.9,511.1 
		773.7,627.2 773.7,660.9 599.7,761.1 	"/>
	<polygon id="XMLID_9_" fill-rule="evenodd" clip-rule="evenodd" fill="#E0DEDD" points="391.5,608.7 600,724.7 599.7,761.1 
		391.5,641.3 	"/>
	<polygon id="XMLID_8_" fill-rule="evenodd" clip-rule="evenodd" fill="#CCCAC8" points="600,724.7 599.7,761.1 773.7,660.9 
		773.7,627.2 	"/>
	<polygon id="XMLID_7_" fill-rule="evenodd" clip-rule="evenodd" fill="#F0E5D5" points="453.7,643.3 632.6,548.7 767,623.4 
		594,721.4 	"/>
	<polygon id="XMLID_6_" fill-rule="evenodd" clip-rule="evenodd" fill="#A48C74" points="594,721.4 594,757.8 453.7,677.1 
		453.7,643.3 	"/>
	<path id="XMLID_5_" fill-rule="evenodd" clip-rule="evenodd" fill="#EDEDED" d="M508.4,548.8c0,0,41.8-15.2,56.4-31.9
		c0,0,6.6-5.9,9.8,5.8c5.8,9.5,27.3,21.7,25.4,23.3c0,0,5.7,3-0.3,7.4c-6,4.4-33.6,7.4-52.5,28.8c0,0-11.8,12.1-13.6,3.6
		C532.8,578.7,494.7,555.5,508.4,548.8"/>
	<path id="XMLID_4_" fill-rule="evenodd" clip-rule="evenodd" fill="#FFFFFF" d="M508.4,548.8c0,0,41.8-15.2,56.4-31.9
		c0,0,6.6-5.9,9.8,5.8c5.8,9.5,27.3,21.7,25.4,23.3c0,0,4.3,2.3,1.5,5.8c-10.9,2.7-36.8,3.8-53,22.1c0,0-11.8,12.1-13.6,3.6
		c-0.5-4.6-19.2-14-28.9-21.9C504.8,552.7,505.3,550.3,508.4,548.8"/>
	<path id="XMLID_3_" fill-rule="evenodd" clip-rule="evenodd" fill="#EDEDED" d="M430.6,594.3c0,0,41.8-15.2,56.4-31.9
		c0,0,6.6-5.9,9.8,5.8c5.8,9.5,27.3,21.7,25.4,23.3c0,0,5.7,3-0.3,7.4c-6,4.4-33.6,7.4-52.5,28.8c0,0-11.8,12.1-13.6,3.6
		C455,624.1,416.9,601,430.6,594.3"/>
	<path id="XMLID_2_" fill-rule="evenodd" clip-rule="evenodd" fill="#FFFFFF" d="M430.6,594.3c0,0,41.8-15.2,56.4-31.9
		c0,0,6.6-5.9,9.8,5.8c5.8,9.5,27.3,21.7,25.4,23.3c0,0,4.3,2.3,1.5,5.8c-10.9,2.7-36.8,3.8-53,22.1c0,0-11.8,12.1-13.6,3.6
		c-0.5-4.6-19.2-14-28.9-21.9C427,598.1,427.5,595.8,430.6,594.3"/>
</g>
</svg>
